<?xml version="1.0" encoding="UTF-8" standalone="no"?>
<svg
   version="1.1"
   width="427.616pt"
   height="427.616pt"
   id="svg83"
   viewBox="0 0 427.616 427.61602"
   sodipodi:docname="viewer.svg"
   inkscape:version="1.3 (0e150ed, 2023-07-21)"
   xml:space="preserve"
   xmlns:inkscape="http://www.inkscape.org/namespaces/inkscape"
   xmlns:sodipodi="http://sodipodi.sourceforge.net/DTD/sodipodi-0.dtd"
   xmlns:xlink="http://www.w3.org/1999/xlink"
   xmlns="http://www.w3.org/2000/svg"
   xmlns:svg="http://www.w3.org/2000/svg"><sodipodi:namedview
     id="namedview85"
     pagecolor="#ffffff"
     bordercolor="#000000"
     borderopacity="0.25"
     inkscape:showpageshadow="2"
     inkscape:pageopacity="0.0"
     inkscape:pagecheckerboard="true"
     inkscape:deskcolor="#d1d1d1"
     inkscape:document-units="pt"
     showgrid="false"
     inkscape:zoom="1.0025602"
     inkscape:cx="277.29008"
     inkscape:cy="299.73262"
     inkscape:window-width="1512"
     inkscape:window-height="916"
     inkscape:window-x="0"
     inkscape:window-y="38"
     inkscape:window-maximized="1"
     inkscape:current-layer="svg83" /><defs
     id="defs7"><radialGradient
       id="grad1"
       cx="38.890202"
       cy="2824.9346"
       r="21.212843"
       gradientTransform="matrix(7.0711833,0,0,0.14141905,-63.436002,-295.37472)"
       fx="38.890202"
       fy="2824.9346"
       gradientUnits="userSpaceOnUse"><stop
         offset="0%"
         stop-color="#ffffff"
         stop-opacity="1.0000"
         id="stop2" /><stop
         offset="100%"
         stop-color="#b1b3b4"
         stop-opacity="1.0000"
         id="stop4" /></radialGradient><linearGradient
       id="linearGradient3012"><stop
         id="stop3014"
         style="stop-color:#53555a"
         offset="0" /><stop
         id="stop3016"
         style="stop-color:#e7e8ec"
         offset="1" /></linearGradient><linearGradient
       id="linearGradient2894"><stop
         id="stop2896"
         style="stop-color:#5e6169"
         offset="0" /><stop
         id="stop2898"
         style="stop-color:#1c2125"
         offset="1" /></linearGradient><filter
       id="filter2820"
       x="-0.013474275"
       y="-0.014006388"
       width="1.0269486"
       height="1.0280128"><feGaussianBlur
         id="feGaussianBlur2822"
         stdDeviation="0.49668993"
         inkscape:collect="always" /></filter><clipPath
       id="clipPath2834"><path
         id="use2836"
         style="fill:url(#linearGradient3043)"
         d="m 1345.5,1395.2 h 233.3 c 1,0 1.8,0.8 1.8,1.8 v 222.3 c 0,1 -0.8,1.8 -1.8,1.8 -77.6,-4.4 -155.6,-3.6 -233.3,0 -1,0 -1.8,-0.8 -1.8,-1.8 V 1397 c 0,-1 0.8,-1.8 1.8,-1.8 z" /></clipPath><filter
       id="filter3052"
       x="-0.0040708853"
       y="-0.036494917"
       width="1.008904"
       height="1.0697715"><feGaussianBlur
         id="feGaussianBlur3054"
         stdDeviation="0.89271179"
         inkscape:collect="always" /></filter><filter
       id="filter3368"
       x="-0.0027088348"
       y="-0.028021314"
       width="1.0063271"
       height="1.0521806"><feGaussianBlur
         id="feGaussianBlur3370"
         stdDeviation="0.59514119"
         inkscape:collect="always" /></filter><linearGradient
       id="linearGradient3043"
       y2="1394.7"
       gradientUnits="userSpaceOnUse"
       x2="1378.2"
       y1="1591.7"
       x1="1378.2"><stop
         id="stop2792"
         style="stop-color:#8c909b"
         offset="0" /><stop
         id="stop2794"
         style="stop-color:#787c87"
         offset="1" /></linearGradient><linearGradient
       id="linearGradient2519"
       y2="164.23"
       gradientUnits="userSpaceOnUse"
       x2="978.64001"
       gradientTransform="translate(-244,-56.959)"
       y1="1373.6"
       x1="978.64001"
       inkscape:collect="always"><stop
         id="stop2912"
         style="stop-color:#1d2025"
         offset="0" /><stop
         id="stop2914"
         style="stop-color:#31343b"
         offset="1" /></linearGradient><linearGradient
       id="linearGradient2521"
       y2="216.14"
       xlink:href="#linearGradient2894"
       gradientUnits="userSpaceOnUse"
       x2="1461.9"
       gradientTransform="translate(-244,-56.959)"
       y1="1332.2"
       x1="1461.9"
       inkscape:collect="always" /><linearGradient
       id="linearGradient2523"
       y2="160.91"
       spreadMethod="reflect"
       gradientUnits="userSpaceOnUse"
       x2="1418.9"
       gradientTransform="translate(-244,-56.959)"
       y1="160.91"
       x1="522.54999"
       inkscape:collect="always"><stop
         id="stop2922"
         style="stop-color:#abafb8"
         offset="0" /><stop
         id="stop2924"
         style="stop-color:#bebdc5"
         offset="1" /></linearGradient><linearGradient
       id="linearGradient2525"
       y2="160.91"
       spreadMethod="reflect"
       gradientUnits="userSpaceOnUse"
       x2="1418.9"
       gradientTransform="translate(-244,1175.6)"
       y1="160.91"
       x1="512.04999"
       inkscape:collect="always"><stop
         id="stop2934"
         style="stop-color:#8f919d"
         offset="0" /><stop
         id="stop2936"
         style="stop-color:#878a95"
         offset="1" /></linearGradient><radialGradient
       id="radialGradient2527"
       xlink:href="#linearGradient2894"
       gradientUnits="userSpaceOnUse"
       cy="-95.417999"
       cx="809.29999"
       gradientTransform="matrix(7.8634e-8,1.0762,-1.2042,8.7983e-8,1094.5,-704.37)"
       r="883.59003"
       inkscape:collect="always" /><linearGradient
       id="linearGradient2545"
       y2="159.47"
       spreadMethod="reflect"
       gradientUnits="userSpaceOnUse"
       x2="1474.5"
       gradientTransform="translate(-244,1175.6)"
       y1="165.47"
       x1="1474.5"
       inkscape:collect="always"><stop
         id="stop3577"
         style="stop-color:#575a62;stop-opacity:.99967"
         offset="0" /><stop
         id="stop3579"
         style="stop-color:#878a95;stop-opacity:0"
         offset="1" /></linearGradient><linearGradient
       id="linearGradient2547"
       y2="155.99001"
       gradientUnits="userSpaceOnUse"
       x2="1474.5"
       gradientTransform="translate(-244,1175.6)"
       y1="165"
       x1="1474.5"
       inkscape:collect="always"><stop
         id="stop3464"
         style="stop-color:#6b6f7a;stop-opacity:0"
         offset="0" /><stop
         id="stop3466"
         style="stop-color:#ebebed"
         offset="1" /></linearGradient><linearGradient
       id="linearGradient2564"
       y2="1666.7"
       gradientUnits="userSpaceOnUse"
       x2="1667.4"
       gradientTransform="matrix(0.20153,0,0,0.20153,98.831,36.358)"
       y1="1665"
       x1="1282.1"
       inkscape:collect="always"><stop
         id="stop5106"
         style="stop-color:#16191e"
         offset="0" /><stop
         id="stop5116"
         style="stop-color:#3a3d43"
         offset=".16349" /><stop
         id="stop3708"
         style="stop-color:#16191e"
         offset=".23888" /><stop
         id="stop5112"
         style="stop-color:#4a4f56"
         offset=".46134" /><stop
         id="stop3710"
         style="stop-color:#16191e"
         offset=".66194" /><stop
         id="stop5114"
         style="stop-color:#36393f"
         offset=".75" /><stop
         id="stop5108"
         style="stop-color:#16191e"
         offset="1" /></linearGradient><linearGradient
       id="linearGradient2566"
       y2="1651.3"
       gradientUnits="userSpaceOnUse"
       x2="2124.1001"
       gradientTransform="matrix(0.20153,0,0,0.20153,98.831,36.358)"
       y1="1651.3"
       x1="797.46997"
       inkscape:collect="always"><stop
         id="stop3398"
         style="stop-color:#000000"
         offset="0" /><stop
         id="stop3400"
         style="stop-color:#000000;stop-opacity:0"
         offset="1" /></linearGradient><linearGradient
       id="linearGradient2568"
       y2="1651.3"
       xlink:href="#linearGradient3012"
       gradientUnits="userSpaceOnUse"
       x2="2040.9"
       y1="1695.5"
       x1="2051"
       inkscape:collect="always" /><linearGradient
       id="linearGradient2570"
       y2="1648.9"
       gradientUnits="userSpaceOnUse"
       x2="1991.5"
       gradientTransform="translate(0.070804)"
       y1="1648.9"
       x1="1470.4"
       inkscape:collect="always"><stop
         id="stop3392"
         style="stop-color:#9c9eaa"
         offset="0" /><stop
         id="stop3412"
         style="stop-color:#32373b"
         offset=".16567" /><stop
         id="stop3414"
         style="stop-color:#9c9ea9"
         offset=".20498" /><stop
         id="stop3416"
         style="stop-color:#363b3f"
         offset=".23579" /><stop
         id="stop3418"
         style="stop-color:#515257"
         offset=".74124" /><stop
         id="stop3394"
         style="stop-color:#4a4f53"
         offset="1" /></linearGradient><linearGradient
       id="linearGradient2574"
       y2="1648.9"
       gradientUnits="userSpaceOnUse"
       x2="1991.5"
       gradientTransform="translate(0.070804)"
       y1="1648.9"
       x1="1470.4"
       inkscape:collect="always"><stop
         id="stop3395"
         style="stop-color:#9c9eaa"
         offset="0" /><stop
         id="stop3397"
         style="stop-color:#32373b"
         offset=".16567" /><stop
         id="stop3399"
         style="stop-color:#868896"
         offset=".20498" /><stop
         id="stop3401"
         style="stop-color:#363b3f"
         offset=".23579" /><stop
         id="stop3403"
         style="stop-color:#515257"
         offset=".74124" /><stop
         id="stop3405"
         style="stop-color:#4a4f53"
         offset="1" /></linearGradient><linearGradient
       id="linearGradient2576"
       y2="1622.3"
       gradientUnits="userSpaceOnUse"
       x2="1467"
       gradientTransform="matrix(0.45989,0,0,0.34382,-277.84,-196.49)"
       y1="1639.5"
       x1="1467"
       inkscape:collect="always"><stop
         id="stop3436"
         style="stop-color:#b5b7bb"
         offset="0" /><stop
         id="stop3438"
         style="stop-color:#e5e6ea"
         offset="1" /></linearGradient><linearGradient
       id="linearGradient2578"
       y2="1623.6"
       gradientUnits="userSpaceOnUse"
       x2="1455.6"
       gradientTransform="matrix(0.45989,0,0,0.34382,-277.84,-196.49)"
       y1="1638.9"
       x1="1455.6"
       inkscape:collect="always"><stop
         id="stop3444"
         style="stop-color:#888b95"
         offset="0" /><stop
         id="stop3446"
         style="stop-color:#f0f1f5"
         offset="1" /></linearGradient><linearGradient
       id="linearGradient2608"
       y2="1421.7"
       gradientUnits="userSpaceOnUse"
       x2="1496.6"
       gradientTransform="translate(0,220.22)"
       y1="1399.2"
       x1="1496.6"
       inkscape:collect="always"><stop
         id="stop4263"
         style="stop-color:#979aa4"
         offset="0" /><stop
         id="stop4265"
         style="stop-color:#979aa4;stop-opacity:0"
         offset="1" /></linearGradient><linearGradient
       id="linearGradient2610"
       y2="1342.2"
       gradientUnits="userSpaceOnUse"
       x2="1367.4"
       y1="1540.1"
       x1="1364.7"
       inkscape:collect="always"><stop
         id="stop2963"
         style="stop-color:#979aa4"
         offset="0" /><stop
         id="stop2965"
         style="stop-color:#50525a"
         offset="1" /></linearGradient><linearGradient
       id="linearGradient3196"
       y2="1503.5"
       gradientUnits="userSpaceOnUse"
       x2="1393"
       y1="1621"
       x1="1393"
       inkscape:collect="always"><stop
         id="stop2826"
         style="stop-color:#4c5059"
         offset="0" /><stop
         id="stop2828"
         style="stop-color:#818590"
         offset="1" /></linearGradient><radialGradient
       id="radialGradient3200"
       gradientUnits="userSpaceOnUse"
       cy="306.60999"
       cx="572.38"
       r="2.0625"
       inkscape:collect="always"><stop
         id="stop2988"
         style="stop-color:#cccccc"
         offset="0" /><stop
         id="stop2990"
         style="stop-color:#c1c1c1;stop-opacity:0"
         offset="1" /></radialGradient><linearGradient
       inkscape:collect="always"
       xlink:href="#linearGradient3012"
       id="linearGradient1"
       gradientUnits="userSpaceOnUse"
       x1="2051"
       y1="1695.5"
       x2="2040.9"
       y2="1651.3" /></defs><defs
     id="defs16"><radialGradient
       id="grad2"
       cx="284.77551"
       cy="445.71454"
       r="159.68723"
       gradientTransform="matrix(0.93933557,0,0,1.0645823,-63.436002,-295.37472)"
       fx="284.77551"
       fy="445.71454"
       gradientUnits="userSpaceOnUse"><stop
         offset="0%"
         stop-color="#e4f3f7"
         stop-opacity="1.0000"
         id="stop11" /><stop
         offset="100%"
         stop-color="#868789"
         stop-opacity="1.0000"
         id="stop13" /></radialGradient></defs><defs
     id="defs25"><radialGradient
       id="grad3"
       cx="202.27991"
       cy="770.45557"
       r="74.187271"
       gradientTransform="matrix(1.4719721,0,0,0.67936069,-63.436002,-295.37472)"
       fx="202.27991"
       fy="770.45557"
       gradientUnits="userSpaceOnUse"><stop
         offset="0%"
         stop-color="#ffb31c"
         stop-opacity="1.0000"
         id="stop20" /><stop
         offset="100%"
         stop-color="#bf6e1c"
         stop-opacity="1.0000"
         id="stop22" /></radialGradient></defs><defs
     id="defs51"><linearGradient
       id="grad4"
       gradientTransform="matrix(6.5831426,0,0,0.15190313,-63.436002,-295.37472)"
       x1="31.899551"
       y1="3184.8323"
       x2="51.647003"
       y2="3184.8323"
       gradientUnits="userSpaceOnUse"><stop
         offset="0%"
         stop-color="#a06414"
         stop-opacity="1.0000"
         id="stop46" /><stop
         offset="100%"
         stop-color="#e8a51e"
         stop-opacity="1.0000"
         id="stop48" /></linearGradient></defs><defs
     id="defs79"><radialGradient
       id="grad5"
       cx="70.788597"
       cy="2292.1216"
       r="19.595547"
       gradientTransform="matrix(4.0825756,0,0,0.24494341,-63.436002,-295.37472)"
       fx="70.788597"
       fy="2292.1216"
       gradientUnits="userSpaceOnUse"><stop
         offset="0%"
         stop-color="#f0a71a"
         stop-opacity="1.0000"
         id="stop74" /><stop
         offset="100%"
         stop-color="#d97e23"
         stop-opacity="1.0000"
         id="stop76" /></radialGradient></defs><g
     id="g1"
     transform="matrix(1.0310383,0,0,0.90638871,17.079857,71.735978)"><path
       id="path4533"
       style="fill:url(#linearGradient2564);fill-rule:evenodd;stroke:url(#linearGradient2566);stroke-width:0.20153px"
       transform="matrix(0.97654,0,0,0.97654,-193.05,-62.533)"
       d="m 526.81,374.78 -26.73,6.02 h -2.45 l -77.38,-7.75 c -2.45,-0.06 -5.01,-0.25 -7.49,0.03 -10.16,1.15 -28.16,1.24 -39.25,-0.1 l -7.77,0.07 -79.09,7.68 h -2.21 l -24.79,-5.63 3.92,-4.63 c 1.72,-2.04 4.2,-2.7 7.55,-3 l 91.27,-8.05 c 1.55,-0.13 2.96,-0.88 4.21,-1.92 h 21.16 35.98 c 1.3,1.14 2.89,1.95 5.06,2.14 l 84.55,7.44 c 4.53,0.4 7.84,0.74 10.32,3.81 z" /><g
       id="use4535"
       transform="matrix(-0.1968,0,0,0.1968,478.07,-27.028)"><path
         id="path3029"
         style="fill:url(#linearGradient1);fill-rule:evenodd;stroke-width:1px"
         d="m 2123.6,1677.2 -132.6,31.9 h -12.2 c -13.3,-23 -30.8,-28.3 -55.6,-30.6 l -328.3,-29.8 c -12.1,-1.2 -24.9,-1.3 -37.2,0.1 -23.1,2.6 -66.9,4.3 -99.2,4.5 l -0.1,-61.8 h 153.8 c 6.4,5.7 14.3,9.7 25.1,10.6 l 419.6,37 c 22.4,1.9 38.8,3.6 51.2,18.9 z" /><path
         id="path3031"
         style="fill:url(#linearGradient2570);fill-rule:evenodd;stroke-width:1px"
         d="m 1991.2,1709.2 h -12.8 c -13.3,-23.1 -30.3,-26.4 -55.2,-28.7 L 1595,1650.7 c -12.1,-1.1 -24.9,-1.3 -37.2,0.1 -23.1,2.6 -69.7,3.9 -99.2,4.5 v -12.8 l 90.5,-3.1 c 16.2,-0.6 34.3,-3.5 47.2,-2.4 l 332.9,29.1 c 22.4,1.9 41.2,10.3 51.7,26.9 z" /><path
         id="path3033"
         style="fill:none;stroke:#ffffff;stroke-width:1px;filter:url(#filter3052)"
         d="m 1460.5,1642.5 88.5,-3.1 c 16.2,-0.6 34.3,-3.5 47.2,-2.4 l 332.9,29.1 c 22.5,1.9 41.2,10.3 51.7,26.9 l 10.3,16.2" /><path
         id="path3035"
         style="fill:none;stroke:#ffffff;stroke-width:1.2;filter:url(#filter3368)"
         d="m 1458.3,1642.5 92.6,-3.1 c 16.1,-0.6 34.2,-3.5 47.1,-2.4 l 332.9,29.1 c 22.5,1.9 41.2,10.3 51.8,26.9 l 10.3,16.2" /></g><g
       id="g4537"
       transform="matrix(0.1968,0,0,0.1968,-96.541,-27.028)"><path
         id="path4539"
         style="fill:url(#linearGradient2568);fill-rule:evenodd;stroke-width:1px"
         d="m 2123.6,1677.2 -132.6,31.9 h -12.2 c -13.3,-23 -30.8,-28.3 -55.6,-30.6 l -328.3,-29.8 c -12.1,-1.2 -24.9,-1.3 -37.2,0.1 -23.1,2.6 -66.9,4.3 -99.2,4.5 l -0.1,-61.8 h 153.8 c 6.4,5.7 14.3,9.7 25.1,10.6 l 419.6,37 c 22.4,1.9 38.8,3.6 51.2,18.9 z" /><path
         id="path4541"
         style="fill:url(#linearGradient2574);fill-rule:evenodd;stroke-width:1px"
         d="m 1991.2,1709.2 h -12.8 c -13.3,-23.1 -30.3,-26.4 -55.2,-28.7 L 1595,1650.7 c -12.1,-1.1 -24.9,-1.3 -37.2,0.1 -23.1,2.6 -69.7,3.9 -99.2,4.5 v -12.8 l 90.5,-3.1 c 16.2,-0.6 34.3,-3.5 47.2,-2.4 l 332.9,29.1 c 22.4,1.9 41.2,10.3 51.7,26.9 z" /><path
         id="path4543"
         style="fill:none;stroke:#ffffff;stroke-width:1px;filter:url(#filter3052)"
         d="m 1460.5,1642.5 88.5,-3.1 c 16.2,-0.6 34.3,-3.5 47.2,-2.4 l 332.9,29.1 c 22.5,1.9 41.2,10.3 51.7,26.9 l 10.3,16.2" /><path
         id="path4545"
         style="fill:none;stroke:#ffffff;stroke-width:1.2;filter:url(#filter3368)"
         d="m 1458.3,1642.5 92.6,-3.1 c 16.1,-0.6 34.2,-3.5 47.1,-2.4 l 332.9,29.1 c 22.5,1.9 41.2,10.3 51.8,26.9 l 10.3,16.2" /></g><path
       id="path4547"
       style="fill:url(#linearGradient2576);stroke:url(#linearGradient2578);stroke-width:0.20153"
       transform="matrix(0.97654,0,0,0.97654,-193.05,-62.533)"
       d="m 420.27,362.9 c 0,1.8 -11.73,3.26 -26.21,3.26 -14.48,0 -26.21,-1.46 -26.21,-3.26 0,-1.81 11.73,-3.27 26.21,-3.27 14.48,0 26.21,1.46 26.21,3.27 z" /><path
       id="path2967"
       style="fill:url(#linearGradient2608)"
       transform="matrix(0.1968,0,0,0.1968,-96.541,-27.028)"
       d="m 1345.5,1615.4 h 233.3 c 1,0 1.8,0.8 1.8,1.8 v 41.6 c 0,1.1 -236.9,-17.9 -236.9,0 v -41.6 c 0,-1 0.8,-1.8 1.8,-1.8 z" /><path
       id="path4551"
       style="fill:url(#linearGradient2610)"
       transform="matrix(0.1968,0,0,0.1968,-96.541,-27.028)"
       d="m 1345.5,1395.2 h 233.3 c 1,0 1.8,0.8 1.8,1.8 v 222.3 c 0,1 -0.8,1.8 -1.8,1.8 -77.6,-4.4 -155.6,-3.6 -233.3,0 -1,0 -1.8,-0.8 -1.8,-1.8 V 1397 c 0,-1 0.8,-1.8 1.8,-1.8 z" /><path
       id="path4553"
       d="m 1345.5,1395.2 h 233.3 c 1,0 1.8,0.8 1.8,1.8 v 224.3 c 0,1 -0.8,1.8 -1.8,1.8 -78.7,-4.1 -156.5,-4.3 -233.3,0 -1,0 -1.8,-0.8 -1.8,-1.8 V 1397 c 0,-1 0.8,-1.8 1.8,-1.8 z"
       style="fill:none;stroke:url(#linearGradient3196);stroke-width:4;filter:url(#filter2820)"
       transform="matrix(0.1968,0,0,0.1968,-96.541,-27.028)"
       clip-path="url(#clipPath2834)" /><path
       id="path2984"
       style="fill:url(#radialGradient3200);stroke-width:1.25;stroke-linecap:round;stroke-linejoin:round;stroke-dashoffset:0.5"
       d="m 574.44,306.61 c 0,0.34 -0.08,0.65 -0.22,0.93 -1.12,0.63 -2.03,0.78 -3.81,-0.3 -0.06,-0.2 -0.1,-0.41 -0.1,-0.63 0.44,-2 1.63,0.76 3.84,-1.05 0.18,0.31 0.29,0.67 0.29,1.05 z"
       transform="matrix(0.4185,-0.4185,0.69052,0.69052,-86.648,262.44)" /><use
       id="use3342"
       xlink:href="#path2984"
       transform="matrix(-1,0,0,1,381.56,4.1606e-7)"
       height="463.36414"
       width="825.92938"
       y="0"
       x="0" /><rect
       id="rect4555"
       style="fill:url(#linearGradient2519)"
       transform="matrix(0.1968,0,0,0.1968,-47.208,-15.818)"
       rx="5.3441"
       ry="5.3441"
       height="1223"
       width="1893.6"
       y="108.04"
       x="262.62" /><rect
       id="rect4557"
       style="fill:url(#linearGradient2521)"
       transform="matrix(0.1968,0,0,0.1968,-47.208,-15.818)"
       rx="5.3441"
       ry="5.3441"
       height="1118.3"
       width="1779.6"
       y="160.39999"
       x="319.62" /><rect
       id="rect4559"
       style="fill:url(#linearGradient2523)"
       transform="matrix(0.1968,0,0,0.1968,-47.208,-15.818)"
       rx="1.8441"
       ry="1.8441"
       height="9"
       width="1890.6"
       y="99.041"
       x="264.12" /><rect
       id="rect4561"
       style="fill:url(#linearGradient2525)"
       transform="matrix(0.1968,0,0,0.1968,-47.208,-15.818)"
       rx="1.8441"
       ry="1.8441"
       height="9"
       width="1890.6"
       y="1331.6"
       x="264.12" /><rect
       id="rect4563"
       style="fill:url(#radialGradient2527)"
       transform="matrix(0.1968,0,0,0.1968,-47.208,-15.818)"
       rx="5.3441"
       ry="5.3441"
       height="1105.8"
       width="1766.2"
       y="166.62"
       x="326.34" /><rect
       id="rect4581"
       style="fill:url(#linearGradient2545)"
       transform="matrix(0.1968,0,0,0.1968,-47.208,-15.818)"
       rx="1.8441"
       ry="1.8441"
       height="9"
       width="1890.6"
       y="1331.6"
       x="264.12" /><rect
       id="rect4267"
       style="opacity:0.65639;fill:url(#linearGradient2547)"
       transform="matrix(0.1968,0,0,0.1968,-47.208,-15.818)"
       rx="1.8441"
       ry="1.8441"
       height="9"
       width="1890.6"
       y="1331.6"
       x="264.12" /></g><path
     d="m 136.56379,102.62488 v 2.9999 h 149.9999 v -2.9999 z"
     style="fill:url(#grad1)"
     id="path9" /><path
     d="m 286.56369,102.62498 v 140.0003 c 0,16.4994 -10.9693,29.9999 -24.3752,29.9999 h -101.2495 c -13.4059,0 -24.3752,-13.5 -24.3752,-29.9999 v -140.0003 h 9.9998 v 100.0003 h 3e-4 v 21.0002 c 0,13.1996 9.506,24.0001 21.12491,24.0001 h 87.75039 c 11.619,0 21.125,-10.8005 21.125,-24.0001 v -35.9997 h -3e-4 v -85.0008 z"
     style="fill:url(#grad2)"
     id="path18" /><path
     d="m 276.56499,187.54258 v 35.9997 c 0,13.1999 -9.5064,24.0002 -21.1255,24.0002 H 167.6885 c -11.61901,0 -21.12541,-10.8003 -21.12541,-24.0002 v -35.9997 z"
     style="fill:url(#grad3)"
     id="path27" /><path
     d="m 248.31239,203.22638 c -0.6271,-0.3308 -1.2659,-0.6125 -1.9087,-0.8628 l 0.4594,-0.0373 c 0,0 -4.0925,-1.8041 -4.4504,-14.8996 -0.354,-13.0975 3.9012,-15.3315 3.9012,-15.3315 l -0.6112,0.0265 c 3.215,-1.6421 5.9805,-4.2363 7.8054,-7.6599 4.755,-8.9044 1.3527,-19.9652 -7.5935,-24.7001 -8.95,-4.729 -20.05729,-1.3496 -24.80929,7.5636 -1.9541,3.6562 -2.5092,7.6726 -1.892,11.4672 l -0.209,-0.32 c 0,0 1.0776,4.7526 -10.1134,11.6685 -11.1891,6.9198 -16.2369,3.4746 -16.2369,3.4746 l 0.3214,0.4711 c -0.3205,-0.1973 -0.6271,-0.3985 -0.9613,-0.5722 -8.95,-4.7349 -20.0602,-1.3516 -24.8143,7.5587 -4.75201,8.9094 -1.3526,19.9653 7.5945,24.7022 6.6706,3.5246 14.5362,2.5421 20.078,-1.8787 l -0.1203,0.2317 c 0,0 4.0738,-3.3362 15.814,2.9387 9.2675,4.9508 10.6438,9.8035 10.8203,11.6272 -0.2425,6.7656 3.2998,13.4017 9.7082,16.791 8.94709,4.7358 20.05729,1.3496 24.80939,-7.5588 4.7559,-8.9074 1.3585,-19.9692 -7.5915,-24.7001 z m -20.68829,2.4008 c -1.4828,0.5221 -5.7193,1.1002 -14.6378,-3.6611 -9.6589,-5.1629 -11.0924,-9.4757 -11.3024,-10.7703 0.137,-1.5705 0.0493,-3.138 -0.2198,-4.6672 l 0.0591,0.0883 c 0,0 -0.7867,-4.195 10.2653,-11.0275 9.8916,-6.1129 14.3883,-4.8968 15.2253,-4.5778 0.5384,0.3641 1.0964,0.7037 1.682,1.0139 1.1131,0.5889 2.2607,1.0502 3.423,1.3918 1.3606,1.2897 3.8648,4.9518 4.1251,14.5796 0.2662,9.7004 -2.5969,13.4411 -4.1576,14.7642 -1.607,0.7244 -3.1115,1.6912 -4.4622,2.8661 z"
     style="fill:#1b1918;fill-rule:evenodd;stroke:#d9dadb;stroke-width:5.6693;stroke-linecap:butt;stroke-linejoin:round;stroke-dasharray:none"
     id="path29" /><g
     id="Layer1000"
     transform="translate(-63.436002,-295.37472)"><path
       d="m 289.8504,440.95 c -5.3387,5.8136 -5.4511,14.3656 -0.3076,19.2046 -2.5427,-2.4372 -2.4875,-7.5097 0.0818,-12.3644 0.3303,-0.4348 1.2876,-1.4625 2.6866,-0.9952 0.141,0.048 0.2336,0.0608 0.2879,0.052 0.3165,0.0677 0.6408,0.1079 0.976,0.0932 2.1247,-0.0962 3.7682,-1.8855 3.6725,-4.0017 -0.0433,-0.9491 -0.4387,-1.7893 -1.05,-2.4342 4.9315,-3.2165 10.5907,-3.5845 12.9095,-1.4762 l 0.0887,0.006 c -5.2972,-4.8153 -13.9565,-3.9545 -19.3454,1.916 z"
       style="fill:#ffffff;fill-rule:evenodd"
       id="path31" /></g><g
     id="Layer1001"
     transform="translate(-63.436002,-295.37472)"><path
       d="m 236.013,494.6838 c -0.0454,-0.0462 -0.0917,-0.1001 -0.1391,-0.1453 0.0296,0.0304 0.0582,0.0677 0.0937,0.1001 z"
       style="fill:#ffffff;fill-rule:evenodd"
       id="path34" /><path
       d="m 236.1835,475.3329 c -5.3396,5.8146 -5.451,14.3647 -0.3086,19.2046 -2.5416,-2.4381 -2.4874,-7.5106 0.0819,-12.3653 0.3312,-0.4358 1.2895,-1.4625 2.6885,-0.9953 0.1391,0.0481 0.2327,0.0599 0.2879,0.053 0.3165,0.0678 0.6419,0.108 0.9761,0.0933 2.1256,-0.0972 3.7681,-1.8865 3.6725,-4.0007 -0.0444,-0.9492 -0.4388,-1.7903 -1.0481,-2.4342 4.9286,-3.2155 10.5887,-3.5865 12.9075,-1.4772 l 0.0878,0.008 c -5.2973,-4.8183 -13.9585,-3.9584 -19.3455,1.914 z"
       style="fill:#ffffff;fill-rule:evenodd"
       id="path36" /></g><g
     id="Layer1002"
     transform="translate(-63.436002,-295.37472)"><path
       d="m 292.8249,523.7949 c -0.0464,-0.0471 -0.0927,-0.1001 -0.1391,-0.1453 0.0286,0.0305 0.0582,0.0678 0.0927,0.0992 z"
       style="fill:#ffffff;fill-rule:evenodd"
       id="path39" /><path
       d="m 292.9944,504.4412 c -5.3396,5.8165 -5.451,14.3686 -0.3085,19.2075 -2.5437,-2.4371 -2.4875,-7.5116 0.0808,-12.3643 0.3313,-0.4368 1.2886,-1.4625 2.6886,-0.9953 0.141,0.0461 0.2317,0.0599 0.2879,0.052 0.3155,0.0677 0.6418,0.108 0.976,0.0942 2.1237,-0.0981 3.7662,-1.8884 3.6706,-4.0046 -0.0434,-0.9482 -0.4388,-1.7884 -1.0481,-2.4332 4.9296,-3.2146 10.5877,-3.5846 12.9085,-1.4762 l 0.0868,0.007 c -5.2944,-4.8163 -13.9566,-3.9555 -19.3426,1.9131 z"
       style="fill:#ffffff;fill-rule:evenodd"
       id="path41" /></g><path
     d="m 276.96039,187.62518 v 35.9992 c 0,13.1998 -9.5063,23.9999 -21.1254,23.9999 H 168.0844 c -11.61901,0 -21.12531,-10.8001 -21.12531,-23.9999 v -35.9992 z"
     style="fill:#fcb11c;fill-opacity:0.4;fill-rule:evenodd"
     id="path44" /><path
     d="m 146.56329,188.41128 v 2.9997 h 130.0003 v -2.9997 z"
     style="fill:url(#grad4)"
     id="path53" /><path
     d="m 146.56309,187.62498 v 1 h 130.0008 v -1 z"
     style="fill:#ffae52;fill-rule:evenodd"
     id="path55" /><path
     d="m 211.5637,255.62528 a 50,6.0001 0 0 1 50.00009,6.0001 50,6.0001 0 1 1 -50.00009,-6.0001 z"
     style="fill:#ffffff;fill-rule:evenodd"
     id="path72" /><path
     d="m 211.5637,262.82548 c 16.3546,0 30.87719,0.9426 40.00019,2.3999 -9.123,1.4573 -23.64559,2.3999 -40.00019,2.3999 -16.3545,0 -30.8771,-0.9426 -40.0001,-2.3999 9.123,-1.4573 23.6456,-2.3999 40.0001,-2.3999 z"
     style="fill:url(#grad5)"
     id="path81" /></svg>
