<?xml version="1.0" encoding="UTF-8"?>
<!DOCTYPE svg PUBLIC "-//W3C//DTD SVG 1.1//EN" "http://www.w3.org/Graphics/SVG/1.1/DTD/svg11.dtd">
<svg version="1.1" xmlns="http://www.w3.org/2000/svg" xmlns:xlink="http://www.w3.org/1999/xlink" x="0" y="0" width="250" height="250" viewBox="0, 0, 250, 250">
  <defs>
    <radialGradient id="Gradient_1" gradientUnits="userSpaceOnUse" cx="236.587" cy="770.577" r="74.187" gradientTransform="matrix(1.472, 0, 0, 0.679, -190, -388)">
      <stop offset="0" stop-color="#FFB31C"/>
      <stop offset="1" stop-color="#BF6E1C"/>
    </radialGradient>
    <linearGradient id="Gradient_2" gradientUnits="userSpaceOnUse" x1="34.178" y1="3146.741" x2="62.28" y2="3146.741" gradientTransform="matrix(6.583, 0, 0, 0.152, -190, -388)">
      <stop offset="0" stop-color="#A06414"/>
      <stop offset="1" stop-color="#E8A51E"/>
    </linearGradient>
    <radialGradient id="Gradient_3" gradientUnits="userSpaceOnUse" cx="125" cy="125" r="101.651">
      <stop offset="0.422" stop-color="#969696"/>
      <stop offset="0.85" stop-color="#C8C8C8"/>
    </radialGradient>
  </defs>
  <g id="Group">
    <path d="M220,95 L220,135.649 C220,148.849 189.946,155 176.96,155 L73.017,155 C60.031,155 30,143.2 30,130 L30,95 z" fill="url(#Gradient_1)" id="path27"/>
  </g>
  <g id="Molecule">
    <g>
      <g id="path29">
        <path d="M121.49,143.393 C121.55,142.687 121.559,141.988 121.538,141.299 L121.752,141.707 C121.752,141.707 121.814,137.235 133.729,131.789 C145.647,126.345 149.366,129.39 149.366,129.39 L149.102,128.837 C151.87,131.155 155.339,132.687 159.203,133.029 C169.258,133.927 178.11,126.473 178.973,116.388 C179.829,106.302 172.378,97.398 162.317,96.507 C158.188,96.136 154.274,97.195 151.022,99.246 L151.235,98.928 C151.235,98.928 147.281,101.777 136.542,94.178 C125.8,86.582 126.999,80.589 126.999,80.589 L126.691,81.069 C126.748,80.697 126.813,80.336 126.842,79.961 C127.704,69.872 120.249,60.967 110.189,60.073 C100.131,59.18 91.282,66.629 90.418,76.715 C89.78,84.233 93.758,91.089 99.992,94.463 L99.732,94.443 C99.732,94.443 104.395,96.889 103.206,110.148 C102.27,120.613 98.341,123.776 96.731,124.651 C90.408,127.072 85.684,132.925 85.068,140.148 C84.205,150.235 91.663,159.139 101.72,160.032 C111.777,160.93 120.632,153.48 121.49,143.393 z M111.197,125.287 C110.137,124.127 107.949,120.453 108.847,110.383 C109.826,99.474 113.235,96.47 114.345,95.771 C115.844,95.283 117.253,94.59 118.555,93.745 L118.497,93.834 C118.497,93.834 122.051,91.47 132.659,98.974 C142.151,105.691 142.788,110.305 142.822,111.2 C142.697,111.838 142.603,112.484 142.546,113.145 C142.439,114.399 142.462,115.636 142.602,116.839 C141.947,118.596 139.554,122.332 130.793,126.333 C121.968,130.369 117.406,129.195 115.578,128.275 C114.284,127.079 112.806,126.072 111.197,125.287 z" fill="#1B1918"/>
        <path d="M121.49,143.393 C121.55,142.687 121.559,141.988 121.538,141.299 L121.752,141.707 C121.752,141.707 121.814,137.235 133.729,131.789 C145.647,126.345 149.366,129.39 149.366,129.39 L149.102,128.837 C151.87,131.155 155.339,132.687 159.203,133.029 C169.258,133.927 178.11,126.473 178.973,116.388 C179.829,106.302 172.378,97.398 162.317,96.507 C158.188,96.136 154.274,97.195 151.022,99.246 L151.235,98.928 C151.235,98.928 147.281,101.777 136.542,94.178 C125.8,86.582 126.999,80.589 126.999,80.589 L126.691,81.069 C126.748,80.697 126.813,80.336 126.842,79.961 C127.704,69.872 120.249,60.967 110.189,60.073 C100.131,59.18 91.282,66.629 90.418,76.715 C89.78,84.233 93.758,91.089 99.992,94.463 L99.732,94.443 C99.732,94.443 104.395,96.889 103.206,110.148 C102.27,120.613 98.341,123.776 96.731,124.651 C90.408,127.072 85.684,132.925 85.068,140.148 C84.205,150.235 91.663,159.139 101.72,160.032 C111.777,160.93 120.632,153.48 121.49,143.393 z M111.197,125.287 C110.137,124.127 107.949,120.453 108.847,110.383 C109.826,99.474 113.235,96.47 114.345,95.771 C115.844,95.283 117.253,94.59 118.555,93.745 L118.497,93.834 C118.497,93.834 122.051,91.47 132.659,98.974 C142.151,105.691 142.788,110.305 142.822,111.2 C142.697,111.838 142.603,112.484 142.546,113.145 C142.439,114.399 142.462,115.636 142.602,116.839 C141.947,118.596 139.554,122.332 130.793,126.333 C121.968,130.369 117.406,129.195 115.578,128.275 C114.284,127.079 112.806,126.072 111.197,125.287 z" fill-opacity="0" stroke="#D9DADB" stroke-width="5.669" stroke-linejoin="round"/>
      </g>
      <path d="M166.002,100.71 C158.564,98.067 150.648,101.305 148.204,107.93 C149.454,104.638 154.145,102.706 159.617,103.175 C160.147,103.309 161.467,103.788 161.583,105.259 C161.594,105.407 161.618,105.498 161.648,105.544 C161.709,105.862 161.799,106.176 161.943,106.479 C162.862,108.397 165.151,109.211 167.062,108.296 C167.919,107.885 168.537,107.193 168.892,106.378 C173.78,109.661 176.33,114.726 175.295,117.685 L175.324,117.769 C177.687,111.011 173.511,103.377 166.002,100.71 z" fill="#FFFFFF" id="path31"/>
      <path d="M113.383,64.744 C105.944,62.1 98.03,65.339 95.584,71.963 C96.836,68.671 101.526,66.739 106.999,67.207 C107.529,67.342 108.849,67.823 108.965,69.293 C108.975,69.44 109.001,69.531 109.029,69.579 C109.09,69.897 109.181,70.212 109.325,70.514 C110.245,72.432 112.533,73.245 114.442,72.331 C115.299,71.919 115.919,71.228 116.273,70.415 C121.159,73.696 123.712,78.761 122.677,81.72 L122.703,81.803 C125.069,75.045 120.893,67.408 113.383,64.744 z" fill="#FFFFFF" id="path36"/>
      <path d="M108.786,128.412 C101.346,125.769 93.43,129.008 90.985,135.633 C92.235,132.339 96.928,130.408 102.398,130.876 C102.93,131.01 104.248,131.491 104.365,132.962 C104.378,133.11 104.4,133.199 104.43,133.247 C104.491,133.564 104.581,133.88 104.724,134.183 C105.644,136.099 107.934,136.912 109.845,135.997 C110.701,135.586 111.319,134.894 111.675,134.081 C116.56,137.363 119.112,142.427 118.078,145.387 L118.105,145.469 C120.47,138.714 116.293,131.077 108.786,128.412 z" fill="#FFFFFF" id="path41"/>
    </g>
  </g>
  <g id="Liquid_Top">
    <path d="M220,95 L220,135.649 C220,148.849 181.436,155 168.45,155 L70.375,155 C57.389,155 30,148.849 30,135.649 L30,95 z" fill="#FCB11C" fill-opacity="0.4" id="path44"/>
    <path d="M35,90 L35,95 L220,95 L220,90 z" fill="url(#Gradient_2)" id="Shape"/>
    <path d="M30,90 L30,91 L220,91 L220,90 z" fill="#FFAE52" id="path55"/>
  </g>
  <g id="Screen">
    <path d="M33.581,163.11 C23.073,163.11 22.5,158.794 22.5,148.414 L22.5,50.478 C22.5,40.099 23.073,30 33.581,30 L216.419,30 C226.927,30 227.5,40.099 227.5,50.478 L227.5,148.414 C227.5,158.794 226.927,163.11 216.419,163.11 L141.749,164.35 L141.749,194.154 L168.458,194.154 C176.527,194.154 183.068,199.94 183.068,207.077 C183.068,214.214 176.527,220 168.458,220 L88.172,220 C80.103,220 73.562,214.214 73.562,207.077 C73.562,199.94 80.103,194.154 88.172,194.154 L114.881,194.154 L114.881,164.35 L33.581,163.11 z M193.854,46.462 L54.475,46.462 C43.967,46.462 35.449,54.876 35.449,65.255 L35.449,129.095 C35.449,139.474 43.967,147.888 54.475,147.888 L193.854,147.888 C204.362,147.888 212.88,139.474 212.88,129.095 L212.88,65.255 C212.88,54.876 204.362,46.462 193.854,46.462 z" fill="url(#Gradient_3)"/>
  </g>
</svg>
